<svg width="980" height="180" viewBox="0 0 980 180" fill="none" xmlns="http://www.w3.org/2000/svg">
<g clip-path="url(#clip0_1_2)">
<path d="M95.025 1.10001C45.925 1.10001 6.125 40.9 6.125 90C6.125 139.1 45.925 178.9 95.025 178.9C144.125 178.9 183.925 139.1 183.925 90C183.925 40.9 144.125 1.10001 95.025 1.10001ZM137.225 111.8C106.825 142.2 52.525 132.5 52.525 132.5C52.525 132.5 42.725 78.3 73.225 47.8C90.125 30.9 118.125 31.6 135.825 49.2C153.525 66.8 154.125 94.9 137.225 111.8Z" fill="black"/>
<path d="M105.225 53.2L96.525 71.1L78.6249 79.8L96.525 88.5L105.225 106.4L113.925 88.5L131.825 79.8L113.925 71.1L105.225 53.2Z" fill="black"/>
<path d="M278.734 70.684C296.588 70.684 307.49 83.324 307.49 101.494V150H290.9V103.864C290.9 93.12 284.264 85.852 273.994 85.852C263.724 85.852 256.298 93.278 256.298 103.864V150H239.708V31.5H256.298V80.164C261.512 74.16 269.254 70.684 278.734 70.684ZM366.613 70.684C389.365 70.684 407.851 88.38 407.851 111.132C407.851 133.884 389.365 151.738 366.613 151.738C343.861 151.58 325.691 134.042 325.691 111.132C325.691 88.38 343.703 70.684 366.613 70.684ZM366.771 85.852C352.709 86.01 342.597 96.912 342.597 111.29C342.597 125.668 352.709 136.412 366.613 136.412C380.359 136.412 390.787 125.51 390.787 111.29C390.787 96.754 380.359 86.01 366.771 85.852ZM493.704 72.422V117.452C493.704 138.466 479.01 151.738 460.05 151.738C440.774 151.738 426.08 138.466 426.08 117.452V72.422H442.512V118.716C442.512 129.618 450.254 136.412 460.05 136.412C469.53 136.412 477.114 129.618 477.114 118.716V72.422H493.704ZM541.785 70.684C553.003 70.684 562.167 74.95 568.645 82.692L559.639 92.962C554.741 87.906 548.263 85.062 541.469 85.062C535.307 85.062 530.883 87.432 530.883 92.488C530.883 96.754 534.043 98.808 541.153 101.652L548.579 104.654C562.641 110.5 569.751 116.662 569.751 128.038C569.751 143.68 556.479 151.738 540.995 151.738C527.249 151.738 516.347 145.418 509.711 136.728L519.191 126.3C525.353 132.778 532.147 137.36 540.995 137.36C547.789 137.36 553.477 134.516 553.477 128.67C553.477 123.614 548.895 121.56 542.575 119.032L534.675 115.714C522.193 110.5 514.451 104.812 514.451 93.12C514.451 78.742 526.459 70.684 541.785 70.684ZM659.982 106.234C659.982 110.5 659.192 114.608 658.718 116.662H600.89C603.102 129.46 612.898 137.044 626.17 137.044C635.176 137.044 642.286 133.568 648.764 127.88L656.664 139.256C648.448 146.998 638.02 151.738 625.696 151.738C601.68 151.738 583.984 134.2 583.984 111.29C583.984 88.538 601.522 70.684 624.116 70.684C644.814 70.684 659.982 85.852 659.982 106.234ZM623.484 84.746C612.582 84.746 603.734 92.172 601.206 103.706H643.392C643.076 91.54 634.07 84.746 623.484 84.746ZM721.493 70.684C743.613 70.684 759.571 88.222 759.571 111.29C759.571 134.358 743.613 151.738 721.651 151.738C710.275 151.738 700.321 147.156 694.475 139.256V150H678.991V31.5H695.581V81.902C701.427 74.792 710.749 70.684 721.493 70.684ZM718.807 136.57C732.237 136.57 742.507 126.142 742.507 111.132C742.507 96.122 732.079 85.852 718.807 85.852C707.115 85.852 695.423 93.752 695.423 111.29C695.423 128.986 707.273 136.57 718.807 136.57ZM814.691 70.684C837.443 70.684 855.929 88.38 855.929 111.132C855.929 133.884 837.443 151.738 814.691 151.738C791.939 151.58 773.769 134.042 773.769 111.132C773.769 88.38 791.781 70.684 814.691 70.684ZM814.849 85.852C800.787 86.01 790.675 96.912 790.675 111.29C790.675 125.668 800.787 136.412 814.691 136.412C828.437 136.412 838.865 125.51 838.865 111.29C838.865 96.754 828.437 86.01 814.849 85.852ZM938.696 150H919.736L900.46 121.876L881.026 150H862.066L890.98 109.71L864.12 72.422H883.08L900.46 97.702L917.682 72.422H936.642L909.624 109.71L938.696 150Z" fill="black"/>
</g>
<defs>
<clipPath id="clip0_1_2">
<rect width="980" height="180" fill="white"/>
</clipPath>
</defs>
</svg>
