<svg width="141" height="53" viewBox="0 0 141 53" fill="none" xmlns="http://www.w3.org/2000/svg">
<path d="M138.287 45.1631C138.243 44.7469 138.055 44.4229 137.725 44.1909C137.398 43.959 136.972 43.843 136.448 43.843C136.079 43.843 135.763 43.8986 135.499 44.0098C135.236 44.121 135.034 44.2719 134.894 44.4626C134.754 44.6532 134.683 44.8708 134.68 45.1155C134.68 45.3188 134.726 45.4951 134.818 45.6444C134.913 45.7938 135.042 45.9208 135.204 46.0257C135.366 46.1274 135.546 46.2131 135.743 46.283C135.94 46.3529 136.138 46.4117 136.338 46.4594L137.253 46.6881C137.622 46.7739 137.976 46.8898 138.316 47.036C138.659 47.1821 138.966 47.3664 139.236 47.5888C139.509 47.8112 139.725 48.0797 139.884 48.3942C140.043 48.7087 140.122 49.0773 140.122 49.4998C140.122 50.0717 139.976 50.5752 139.684 51.0105C139.391 51.4426 138.969 51.7809 138.416 52.0256C137.866 52.267 137.201 52.3878 136.419 52.3878C135.66 52.3878 135.001 52.2702 134.442 52.0351C133.886 51.8 133.45 51.4569 133.136 51.0057C132.824 50.5546 132.656 50.005 132.631 49.3568H134.37C134.395 49.6968 134.5 49.9795 134.685 50.2051C134.869 50.4307 135.109 50.5991 135.404 50.7103C135.703 50.8215 136.036 50.8771 136.405 50.8771C136.789 50.8771 137.126 50.8199 137.415 50.7055C137.708 50.5879 137.936 50.4259 138.102 50.2194C138.267 50.0097 138.351 49.7651 138.354 49.4855C138.351 49.2313 138.276 49.0217 138.13 48.8565C137.984 48.6881 137.779 48.5483 137.515 48.4371C137.255 48.3227 136.95 48.221 136.6 48.1321L135.49 47.8461C134.686 47.6396 134.051 47.3267 133.584 46.9073C133.12 46.4848 132.888 45.924 132.888 45.2251C132.888 44.65 133.044 44.1465 133.355 43.7144C133.67 43.2823 134.097 42.9471 134.637 42.7088C135.177 42.4674 135.789 42.3466 136.472 42.3466C137.164 42.3466 137.771 42.4674 138.292 42.7088C138.816 42.9471 139.228 43.2791 139.526 43.7048C139.825 44.1274 139.979 44.6135 139.989 45.1631H138.287Z" fill="#BC9472"/>
<path d="M123.316 52.24V42.4801H126.976C127.725 42.4801 128.354 42.6104 128.863 42.8709C129.374 43.1314 129.76 43.4968 130.021 43.967C130.285 44.434 130.416 44.9789 130.416 45.6016C130.416 46.2274 130.283 46.7707 130.016 47.2314C129.752 47.6889 129.363 48.0431 128.849 48.2941C128.334 48.5419 127.702 48.6658 126.952 48.6658H124.345V47.198H126.714C127.152 47.198 127.511 47.1377 127.791 47.0169C128.07 46.893 128.277 46.7135 128.41 46.4784C128.547 46.2402 128.615 45.9479 128.615 45.6016C128.615 45.2553 128.547 44.9598 128.41 44.7152C128.273 44.4674 128.065 44.2799 127.786 44.1528C127.506 44.0226 127.146 43.9574 126.704 43.9574H125.084V52.24H123.316ZM128.358 47.8176L130.774 52.24H128.801L126.428 47.8176H128.358Z" fill="#BC9472"/>
<path d="M114.225 52.24V42.4801H120.572V43.9622H115.993V46.6119H120.244V48.094H115.993V50.7579H120.611V52.24H114.225Z" fill="#BC9472"/>
<path d="M104.649 52.24V42.4801H108.309C109.059 42.4801 109.688 42.6199 110.196 42.8995C110.708 43.1791 111.094 43.5635 111.354 44.0527C111.618 44.5388 111.75 45.0916 111.75 45.7112C111.75 46.3371 111.618 46.893 111.354 47.3791C111.09 47.8652 110.701 48.2481 110.187 48.5276C109.672 48.804 109.038 48.9422 108.285 48.9422H105.859V47.4887H108.047C108.485 47.4887 108.844 47.4125 109.124 47.26C109.403 47.1075 109.61 46.8978 109.743 46.6309C109.88 46.3641 109.948 46.0575 109.948 45.7112C109.948 45.3649 109.88 45.0599 109.743 44.7962C109.61 44.5325 109.402 44.3276 109.119 44.1814C108.839 44.0321 108.479 43.9574 108.037 43.9574H106.417V52.24H104.649Z" fill="#BC9472"/>
<path d="M102.038 47.3601C102.038 48.4117 101.841 49.3124 101.447 50.0621C101.056 50.8088 100.522 51.3806 99.8458 51.7778C99.1722 52.1749 98.4081 52.3735 97.5535 52.3735C96.6989 52.3735 95.9332 52.1749 95.2565 51.7778C94.583 51.3774 94.0492 50.804 93.6553 50.0574C93.2645 49.3076 93.0691 48.4085 93.0691 47.3601C93.0691 46.3084 93.2645 45.4093 93.6553 44.6627C94.0492 43.9129 94.583 43.3395 95.2565 42.9423C95.9332 42.5452 96.6989 42.3466 97.5535 42.3466C98.4081 42.3466 99.1722 42.5452 99.8458 42.9423C100.522 43.3395 101.056 43.9129 101.447 44.6627C101.841 45.4093 102.038 46.3084 102.038 47.3601ZM100.26 47.3601C100.26 46.6198 100.144 45.9955 99.9125 45.4872C99.6837 44.9757 99.366 44.5897 98.9594 44.3291C98.5527 44.0654 98.0841 43.9336 97.5535 43.9336C97.0229 43.9336 96.5543 44.0654 96.1477 44.3291C95.741 44.5897 95.4217 44.9757 95.1898 45.4872C94.961 45.9955 94.8467 46.6198 94.8467 47.3601C94.8467 48.1003 94.961 48.7262 95.1898 49.2377C95.4217 49.746 95.741 50.132 96.1477 50.3957C96.5543 50.6563 97.0229 50.7865 97.5535 50.7865C98.0841 50.7865 98.5527 50.6563 98.9594 50.3957C99.366 50.132 99.6837 49.746 99.9125 49.2377C100.144 48.7262 100.26 48.1003 100.26 47.3601Z" fill="#BC9472"/>
<path d="M85.1562 52.24V42.4801H86.9243V50.7579H91.2229V52.24H85.1562Z" fill="#BC9472"/>
<path d="M76.0654 52.24V42.4801H82.4132V43.9622H77.8335V46.6119H82.0844V48.094H77.8335V50.7579H82.4513V52.24H76.0654Z" fill="#BC9472"/>
<path d="M66.7208 42.4801L69.2609 50.1622H69.361L71.8963 42.4801H73.8406L70.3999 52.24H68.2172L64.7812 42.4801H66.7208Z" fill="#BC9472"/>
<path d="M56.324 52.24V42.4801H62.6717V43.9622H58.092V46.6119H62.3429V48.094H58.092V50.7579H62.7099V52.24H56.324Z" fill="#BC9472"/>
<path d="M48.968 52.24H45.6606V42.4801H49.0347C50.0037 42.4801 50.8361 42.6755 51.5319 43.0663C52.2308 43.4539 52.7677 44.0114 53.1426 44.739C53.5175 45.4665 53.705 46.3371 53.705 47.3505C53.705 48.3672 53.5159 49.2409 53.1379 49.9716C52.763 50.7023 52.2213 51.2631 51.5128 51.6539C50.8075 52.0446 49.9592 52.24 48.968 52.24ZM47.4287 50.7103H48.8822C49.5621 50.7103 50.1292 50.5864 50.5835 50.3386C51.0378 50.0876 51.3794 49.7143 51.6081 49.2187C51.8369 48.7199 51.9512 48.0971 51.9512 47.3505C51.9512 46.6039 51.8369 45.9844 51.6081 45.492C51.3794 44.9963 51.041 44.6262 50.593 44.3816C50.1482 44.1338 49.5954 44.0099 48.9346 44.0099H47.4287V50.7103Z" fill="#BC9472"/>
<path d="M34.0361 52.24H30.7288V42.4801H34.1028C35.0718 42.4801 35.9042 42.6755 36.6 43.0663C37.2989 43.4539 37.8358 44.0114 38.2107 44.739C38.5856 45.4665 38.7731 46.3371 38.7731 47.3505C38.7731 48.3672 38.584 49.2409 38.206 49.9716C37.8311 50.7023 37.2894 51.2631 36.5809 51.6539C35.8756 52.0446 35.0273 52.24 34.0361 52.24ZM32.4968 50.7103H33.9503C34.6302 50.7103 35.1973 50.5864 35.6516 50.3386C36.1059 50.0876 36.4475 49.7143 36.6762 49.2187C36.905 48.7199 37.0193 48.0971 37.0193 47.3505C37.0193 46.6039 36.905 45.9844 36.6762 45.492C36.4475 44.9963 36.1091 44.6262 35.6611 44.3816C35.2164 44.1338 34.6636 44.0099 34.0027 44.0099H32.4968V50.7103Z" fill="#BC9472"/>
<path d="M27.863 42.4801V52.24H26.2904L21.6916 45.592H21.6106V52.24H19.8425V42.4801H21.4247L26.0187 49.1329H26.1045V42.4801H27.863Z" fill="#BC9472"/>
<path d="M10.445 52.24H8.55786L11.9939 42.4801H14.1765L17.6173 52.24H15.7301L13.1233 44.4817H13.0471L10.445 52.24ZM10.507 48.4133H15.6538V49.8334H10.507V48.4133Z" fill="#BC9472"/>
<path d="M0.284424 52.24V42.4801H2.05246V50.7579H6.35102V52.24H0.284424Z" fill="#BC9472"/>
<path d="M89.0364 0.875977H98.7666V25.805C98.7547 28.1724 98.1569 30.2557 96.9732 32.055C95.8014 33.8424 94.1797 35.2391 92.1082 36.2453C90.0485 37.2396 87.6752 37.7368 84.9881 37.7368C82.6562 37.7368 80.5256 37.3343 78.5961 36.5294C76.6667 35.7126 75.1278 34.4342 73.9796 32.6942C72.8314 30.9423 72.2632 28.6695 72.2751 25.876H82.1472C82.1827 26.7874 82.3366 27.5568 82.6089 28.1842C82.893 28.8116 83.2836 29.2851 83.7808 29.6047C84.2898 29.9124 84.9053 30.0663 85.6274 30.0663C86.3613 30.0663 86.9768 29.9065 87.4739 29.5869C87.9829 29.2673 88.3676 28.7938 88.6281 28.1665C88.8885 27.5273 89.0246 26.7401 89.0364 25.805V0.875977Z" fill="#BC9472"/>
<path d="M43.7017 37.2396H33.0483L45.0512 0.875977H58.5455L70.5483 37.2396H59.8949L51.9404 10.8902H51.6563L43.7017 37.2396ZM51.6563 22.893V20.9731L58.5455 37.2396H45.0512L51.6563 22.893Z" fill="#BC9472"/>
<path d="M113.194 37.2396H102.54L114.543 0.875977H128.037L140.04 37.2396H129.387L121.432 10.8902H121.148L113.194 37.2396ZM121.148 22.893V20.9731L128.037 37.2396H114.543L121.148 22.893Z" fill="#BC9472"/>
<path d="M0.857178 37.2396V0.875977H16.6242C19.3941 0.875977 21.7201 1.24885 23.6022 1.99459C25.4961 2.74032 26.9225 3.79383 27.8813 5.1551C28.852 6.51636 29.3373 8.12029 29.3373 9.96689C29.3373 11.3045 29.0414 12.5237 28.4495 13.6246C27.8695 14.7254 27.0527 15.6487 25.9992 16.3944C24.9457 17.1283 23.7147 17.6373 22.306 17.9214V18.2765C23.8685 18.3357 25.289 18.7323 26.5674 19.4662C27.8458 20.1882 28.8638 21.1885 29.6214 22.4669C30.379 23.7335 30.7577 25.2249 30.7577 26.9413C30.7577 28.93 30.2369 30.6996 29.1952 32.2503C28.1654 33.8009 26.6976 35.0202 24.7918 35.9079C22.8861 36.7957 20.6133 37.2396 17.9737 37.2396H0.857178ZM10.7293 29.3561H15.3458C17.003 29.3561 18.2459 29.0483 19.0745 28.4328C19.9031 27.8054 20.3174 26.8821 20.3174 25.6629C20.3174 24.8106 20.1221 24.0886 19.7315 23.4967C19.3408 22.9049 18.7845 22.455 18.0624 22.1473C17.3522 21.8395 16.494 21.6856 15.4879 21.6856H10.7293V29.3561ZM10.7293 15.5777H14.7776C15.6417 15.5777 16.4052 15.4416 17.0681 15.1693C17.731 14.897 18.2459 14.5064 18.6129 13.9974C18.9916 13.4766 19.181 12.8433 19.181 12.0976C19.181 10.973 18.7786 10.1148 17.9737 9.52299C17.1687 8.9193 16.1507 8.61745 14.9197 8.61745H10.7293V15.5777Z" fill="#BC9472"/>
<rect x="78.1328" y="0.886566" width="20.1841" height="7.16202" fill="#BC9472"/>
</svg>
