<svg width="352" height="116" viewBox="0 0 352 116" fill="none" xmlns="http://www.w3.org/2000/svg">
<path d="M70 63.5C70 69.299 65.299 74 59.5 74C53.701 74 49 69.299 49 63.5C49 57.701 53.701 53 59.5 53C65.299 53 70 57.701 70 63.5Z" fill="#23646A"/>
<path fill-rule="evenodd" clip-rule="evenodd" d="M0 15C0 6.71573 6.71573 0 15 0H55C63.2843 0 70 6.71573 70 15V30H55V27C55 18.7157 48.2843 12 40 12H29C20.7157 12 14 18.7157 14 27V66C14 74.2843 20.7157 81 29 81H33H40H70V88C70 96.2843 63.2843 103 55 103H15C6.71573 103 0 96.2843 0 88V15Z" fill="#23646A"/>
<path d="M94.6415 103.855C91.4495 103.855 88.647 103.219 86.234 101.945C83.821 100.653 81.94 98.858 80.591 96.559C79.242 94.241 78.5675 91.5335 78.5675 88.4365C78.5675 86.1945 78.957 84.133 79.736 82.252C80.534 80.371 81.636 78.7465 83.042 77.3785C84.467 76.0105 86.139 74.956 88.058 74.215C89.996 73.455 92.124 73.075 94.442 73.075C96.988 73.075 99.2585 73.531 101.254 74.443C103.249 75.336 104.892 76.59 106.184 78.205C107.495 79.801 108.398 81.6915 108.892 83.8765C109.386 86.0425 109.405 88.3985 108.949 90.9445H87.1175C87.1365 92.0845 87.4785 93.082 88.1435 93.937C88.8085 94.792 89.7205 95.4665 90.8795 95.9605C92.0385 96.4355 93.3875 96.673 94.9265 96.673C96.6365 96.673 98.261 96.4545 99.8 96.0175C101.339 95.5615 102.812 94.868 104.218 93.937L107.153 100.264C106.26 100.948 105.101 101.565 103.676 102.116C102.27 102.648 100.769 103.067 99.173 103.371C97.596 103.694 96.0855 103.855 94.6415 103.855ZM87.6875 84.646H100.057C100.019 83.183 99.477 82.0145 98.432 81.1405C97.387 80.2665 95.9715 79.8295 94.1855 79.8295C92.3805 79.8295 90.8795 80.2665 89.6825 81.1405C88.5045 82.0145 87.8395 83.183 87.6875 84.646ZM128.878 103.855C125.705 103.855 122.902 103.162 120.47 101.774C118.038 100.368 116.129 98.497 114.742 96.16C113.374 93.823 112.69 91.258 112.69 88.465C112.69 86.432 113.079 84.494 113.858 82.651C114.656 80.789 115.777 79.1455 117.221 77.7205C118.665 76.2765 120.375 75.146 122.351 74.329C124.327 73.493 126.503 73.075 128.878 73.075C132.051 73.075 134.853 73.778 137.285 75.184C139.717 76.571 141.617 78.433 142.985 80.77C144.353 83.107 145.037 85.672 145.037 88.465C145.037 90.498 144.648 92.4455 143.869 94.3075C143.09 96.1505 141.978 97.7845 140.534 99.2095C139.09 100.634 137.38 101.765 135.404 102.601C133.428 103.437 131.253 103.855 128.878 103.855ZM128.878 95.818C130.208 95.818 131.405 95.5235 132.469 94.9345C133.533 94.3265 134.369 93.4715 134.977 92.3695C135.585 91.2675 135.889 89.966 135.889 88.465C135.889 86.945 135.585 85.6435 134.977 84.5605C134.388 83.4585 133.561 82.613 132.497 82.024C131.433 81.416 130.227 81.112 128.878 81.112C127.529 81.112 126.322 81.416 125.258 82.024C124.194 82.613 123.358 83.4585 122.75 84.5605C122.142 85.6435 121.838 86.945 121.838 88.465C121.838 89.966 122.142 91.2675 122.75 92.3695C123.377 93.4715 124.223 94.3265 125.287 94.9345C126.351 95.5235 127.548 95.818 128.878 95.818ZM161.826 115.825C159.66 115.825 157.703 115.635 155.955 115.255C154.226 114.894 152.735 114.362 151.481 113.659C150.246 112.975 149.296 112.139 148.631 111.151C147.966 110.182 147.633 109.09 147.633 107.874C147.633 106.924 147.899 106.031 148.431 105.195C148.963 104.359 149.723 103.627 150.711 103C151.699 102.392 152.887 101.936 154.274 101.632C153.191 101.005 152.383 100.302 151.851 99.523C151.338 98.744 151.082 97.8605 151.082 96.8725C151.082 95.9795 151.348 95.134 151.88 94.336C152.412 93.519 153.153 92.797 154.103 92.17C155.053 91.524 156.164 91.0205 157.437 90.6595C158.71 90.2795 160.097 90.099 161.598 90.118L163.28 93.6235C162.216 93.6235 161.342 93.69 160.658 93.823C159.974 93.956 159.47 94.165 159.147 94.45C158.824 94.716 158.663 95.02 158.663 95.362C158.663 95.818 158.929 96.179 159.461 96.445C160.012 96.692 160.952 96.8725 162.282 96.9865L167.241 97.414C169.654 97.642 171.744 98.0505 173.511 98.6395C175.278 99.2285 176.646 100.074 177.615 101.176C178.584 102.278 179.069 103.703 179.069 105.451C179.069 106.952 178.66 108.33 177.843 109.584C177.026 110.857 175.858 111.959 174.338 112.89C172.837 113.821 171.022 114.543 168.894 115.056C166.785 115.569 164.429 115.825 161.826 115.825ZM163.194 109.954C165.455 109.954 167.241 109.65 168.552 109.042C169.863 108.453 170.519 107.684 170.519 106.734C170.519 105.974 170.129 105.394 169.35 104.995C168.571 104.615 167.336 104.359 165.645 104.226L160.116 103.798C159.185 103.893 158.387 104.074 157.722 104.34C157.076 104.625 156.582 104.967 156.24 105.366C155.917 105.765 155.756 106.211 155.756 106.705C155.756 107.351 156.06 107.921 156.668 108.415C157.276 108.909 158.131 109.289 159.233 109.555C160.354 109.821 161.674 109.954 163.194 109.954ZM162.767 93.937C160.183 93.937 157.903 93.481 155.927 92.569C153.97 91.638 152.431 90.384 151.31 88.807C150.208 87.23 149.657 85.4535 149.657 83.4775C149.657 81.5585 150.217 79.8105 151.338 78.2335C152.478 76.6565 154.036 75.4025 156.012 74.4715C157.988 73.5405 160.24 73.075 162.767 73.075C165.275 73.075 167.507 73.5405 169.464 74.4715C171.44 75.3835 172.989 76.628 174.11 78.205C175.25 79.763 175.82 81.5205 175.82 83.4775C175.82 85.4155 175.259 87.1825 174.138 88.7785C173.036 90.3555 171.507 91.6095 169.55 92.5405C167.593 93.4715 165.332 93.937 162.767 93.937ZM162.767 87.61C163.755 87.61 164.638 87.439 165.417 87.097C166.215 86.736 166.842 86.2515 167.298 85.6435C167.754 85.0165 167.982 84.2945 167.982 83.4775C167.982 82.2615 167.479 81.2735 166.472 80.5135C165.484 79.7345 164.249 79.345 162.767 79.345C161.76 79.345 160.857 79.5255 160.059 79.8865C159.28 80.2475 158.663 80.7415 158.207 81.3685C157.751 81.9765 157.523 82.6795 157.523 83.4775C157.523 84.6935 158.017 85.691 159.005 86.47C160.012 87.23 161.266 87.61 162.767 87.61ZM167.127 80.9125L163.593 74.842L180.807 73.93V81.34L167.127 80.9125ZM185.413 103V73.93H194.761V77.3215C195.635 75.8205 196.794 74.728 198.238 74.044C199.682 73.36 201.25 73.018 202.941 73.018C203.587 73.018 204.166 73.056 204.679 73.132C205.192 73.208 205.696 73.2935 206.19 73.3885L205.078 82.993C204.432 82.765 203.748 82.5845 203.026 82.4515C202.304 82.2995 201.582 82.2235 200.86 82.2235C199.093 82.2235 197.63 82.7365 196.471 83.7625C195.331 84.7695 194.761 86.2515 194.761 88.2085V103H185.413ZM218.864 103.855C216.926 103.855 215.188 103.485 213.649 102.743C212.11 101.983 210.894 100.91 210.001 99.523C209.108 98.117 208.661 96.4355 208.661 94.4785C208.661 92.8065 209.07 91.3245 209.887 90.0325C210.723 88.7405 211.977 87.6765 213.649 86.8405C215.321 86.0045 217.42 85.444 219.947 85.159C222.493 84.855 225.467 84.855 228.868 85.159L228.953 90.973C227.148 90.65 225.514 90.4885 224.051 90.4885C222.607 90.4695 221.372 90.593 220.346 90.859C219.339 91.106 218.56 91.4955 218.009 92.0275C217.458 92.5595 217.183 93.215 217.183 93.994C217.183 95.001 217.563 95.7705 218.323 96.3025C219.102 96.8345 220.137 97.1005 221.429 97.1005C222.55 97.1005 223.557 96.901 224.45 96.502C225.362 96.103 226.084 95.5235 226.616 94.7635C227.167 93.9845 227.443 93.0345 227.443 91.9135V85.273C227.443 84.228 227.224 83.3065 226.787 82.5085C226.35 81.7105 225.657 81.093 224.707 80.656C223.776 80.2 222.531 79.972 220.973 79.972C219.472 79.972 217.981 80.2 216.499 80.656C215.017 81.093 213.687 81.758 212.509 82.651L210.115 76.2385C211.996 75.0605 214.01 74.196 216.157 73.645C218.304 73.075 220.413 72.79 222.484 72.79C225.22 72.79 227.623 73.227 229.694 74.101C231.784 74.975 233.418 76.324 234.596 78.148C235.774 79.972 236.363 82.309 236.363 85.159V103H228.298V99.922C227.367 101.176 226.084 102.145 224.45 102.829C222.816 103.513 220.954 103.855 218.864 103.855ZM245.615 103V71.2795C245.615 68.1825 246.536 65.7125 248.379 63.8695C250.241 62.0265 252.892 61.105 256.331 61.105C257.452 61.105 258.535 61.219 259.58 61.447C260.625 61.675 261.651 62.036 262.658 62.53L261.29 69.6265C260.739 69.3225 260.207 69.1135 259.694 68.9995C259.2 68.8855 258.725 68.8285 258.269 68.8285C257.243 68.8285 256.426 69.066 255.818 69.541C255.229 70.016 254.934 70.757 254.934 71.764V73.93H262.031V81.34H254.934V103H245.615ZM240.542 81.34V73.93H246.47V81.34H240.542ZM274.973 103.855C273.035 103.855 271.297 103.485 269.758 102.743C268.219 101.983 267.003 100.91 266.11 99.523C265.217 98.117 264.77 96.4355 264.77 94.4785C264.77 92.8065 265.179 91.3245 265.996 90.0325C266.832 88.7405 268.086 87.6765 269.758 86.8405C271.43 86.0045 273.529 85.444 276.056 85.159C278.602 84.855 281.576 84.855 284.977 85.159L285.062 90.973C283.257 90.65 281.623 90.4885 280.16 90.4885C278.716 90.4695 277.481 90.593 276.455 90.859C275.448 91.106 274.669 91.4955 274.118 92.0275C273.567 92.5595 273.292 93.215 273.292 93.994C273.292 95.001 273.672 95.7705 274.432 96.3025C275.211 96.8345 276.246 97.1005 277.538 97.1005C278.659 97.1005 279.666 96.901 280.559 96.502C281.471 96.103 282.193 95.5235 282.725 94.7635C283.276 93.9845 283.552 93.0345 283.552 91.9135V85.273C283.552 84.228 283.333 83.3065 282.896 82.5085C282.459 81.7105 281.766 81.093 280.816 80.656C279.885 80.2 278.64 79.972 277.082 79.972C275.581 79.972 274.09 80.2 272.608 80.656C271.126 81.093 269.796 81.758 268.618 82.651L266.224 76.2385C268.105 75.0605 270.119 74.196 272.266 73.645C274.413 73.075 276.522 72.79 278.593 72.79C281.329 72.79 283.732 73.227 285.803 74.101C287.893 74.975 289.527 76.324 290.705 78.148C291.883 79.972 292.472 82.309 292.472 85.159V103H284.407V99.922C283.476 101.176 282.193 102.145 280.559 102.829C278.925 103.513 277.063 103.855 274.973 103.855Z" fill="#23646A"/>
</svg>
