<svg width="57" height="62" viewBox="0 0 57 62" fill="none" xmlns="http://www.w3.org/2000/svg">
<path fill-rule="evenodd" clip-rule="evenodd" d="M31.9983 60.0497L32.1643 33.8146L51.0935 17.5422L51.2595 43.9434L31.9983 60.0497Z" fill="url(#paint0_linear_1559_23)" stroke="black" stroke-width="2" stroke-linejoin="round"/>
<path fill-rule="evenodd" clip-rule="evenodd" d="M19.379 15.7157C19.379 15.7157 36.3155 35.309 36.6476 35.309C36.9797 35.309 55.0786 19.3687 55.0786 19.3687L36.9797 1.26978L19.0469 15.8817" fill="url(#paint1_linear_1559_23)"/>
<path d="M19.379 15.7157C19.379 15.7157 36.3155 35.309 36.6476 35.309C36.9797 35.309 55.0786 19.3687 55.0786 19.3687L36.9797 1.26978L19.0469 15.8817" stroke="black" stroke-width="2" stroke-linejoin="round"/>
<path fill-rule="evenodd" clip-rule="evenodd" d="M19.2129 15.8817C19.2129 16.0478 1.11401 26.8407 1.11401 26.8407L18.5487 12.8929L36.8137 1.26978L19.2129 15.8817Z" fill="url(#paint2_linear_1559_23)" stroke="black" stroke-width="2" stroke-linejoin="round"/>
<path fill-rule="evenodd" clip-rule="evenodd" d="M1.11401 26.8406L19.2129 15.8816L36.6476 35.4749L34.9872 36.8033L18.3827 18.2062L1.94424 28.501L1.11401 26.8406Z" fill="black" stroke="black" stroke-width="2" stroke-linejoin="round"/>
<path fill-rule="evenodd" clip-rule="evenodd" d="M4.10278 27.1727C4.26883 27.1727 4.26883 51.5813 4.10278 51.5813L32.1644 60.0496V33.6484L18.3826 18.3723L4.10278 27.1727Z" fill="#824A3D" stroke="black" stroke-width="2" stroke-linejoin="round"/>
<path fill-rule="evenodd" clip-rule="evenodd" d="M9.08423 53.0759L9.25027 35.4751L23.6962 39.1281V57.393L9.08423 53.0759Z" fill="#EE5E46" stroke="black" stroke-width="2" stroke-linejoin="round"/>
<path fill-rule="evenodd" clip-rule="evenodd" d="M37.6438 37.9656C37.8098 37.7996 47.7725 29.4973 47.7725 29.4973L47.9386 40.2902L37.9759 48.9246L37.6438 37.9656Z" fill="#EE5E46" stroke="black" stroke-width="2" stroke-linejoin="round"/>
<path fill-rule="evenodd" clip-rule="evenodd" d="M18.2165 24.6822C23.53 26.3426 21.7035 33.6486 17.3863 32.4863C13.0691 31.1579 14.2314 23.5198 18.2165 24.6822Z" fill="black" stroke="black" stroke-width="2" stroke-linejoin="round"/>
<path fill-rule="evenodd" clip-rule="evenodd" d="M43.2896 34.1466C43.4556 34.1466 47.1086 30.8257 47.1086 30.8257V39.7921L43.4556 43.113L43.2896 34.1466Z" fill="url(#paint3_linear_1559_23)" stroke="black" stroke-width="2" stroke-linejoin="round"/>
<path fill-rule="evenodd" clip-rule="evenodd" d="M36.7339 49.9609L49.7013 38.9753L49.7492 41.1658L36.783 52.5565C36.783 52.5565 36.8986 49.9609 36.7339 49.9609Z" fill="#EE5E46" stroke="black" stroke-width="2" stroke-linejoin="round"/>
<path fill-rule="evenodd" clip-rule="evenodd" d="M21.5335 47.4038C22.729 47.7811 22.7277 49.7949 21.2187 49.6687C19.8969 49.48 20.0231 47.4662 21.5335 47.4038Z" fill="black" stroke="black" stroke-width="2" stroke-linejoin="round"/>
<path fill-rule="evenodd" clip-rule="evenodd" d="M38.4741 38.464C38.6402 38.464 42.2932 35.1431 42.2932 35.1431V44.1095L38.6402 47.4304L38.4741 38.464Z" fill="url(#paint4_linear_1559_23)" stroke="black" stroke-width="2" stroke-linejoin="round"/>
<defs>
<linearGradient id="paint0_linear_1559_23" x1="9.41644" y1="19.2027" x2="51.0514" y2="30.2308" gradientUnits="userSpaceOnUse">
<stop stop-color="white"/>
<stop offset="1" stop-color="#975E52"/>
</linearGradient>
<linearGradient id="paint1_linear_1559_23" x1="38.3873" y1="23.076" x2="31.9697" y2="-6.86597" gradientUnits="userSpaceOnUse">
<stop stop-color="#333333"/>
<stop offset="1" stop-color="white"/>
</linearGradient>
<linearGradient id="paint2_linear_1559_23" x1="15.5924" y1="14.4547" x2="34.3157" y2="-20.6115" gradientUnits="userSpaceOnUse">
<stop stop-color="#333333"/>
<stop offset="1" stop-color="white"/>
</linearGradient>
<linearGradient id="paint3_linear_1559_23" x1="43.5755" y1="34.3776" x2="49.1122" y2="35.959" gradientUnits="userSpaceOnUse">
<stop stop-color="white"/>
<stop offset="1" stop-color="#00FFFF"/>
</linearGradient>
<linearGradient id="paint4_linear_1559_23" x1="38.7601" y1="38.695" x2="44.2968" y2="40.2764" gradientUnits="userSpaceOnUse">
<stop stop-color="white"/>
<stop offset="1" stop-color="#00FFFF"/>
</linearGradient>
</defs>
</svg>
